Simulation
nRows=35
nColumns=15
endheader
time  TH_x TH_y TH_z SC_y  SC_z  SC_x  AC_y  AC_z  AC_x  GH_y  GH_z  GH_yy  EL_x  PS_y
7.203000000000001  0.000000  0.000000  0.000000  -24.621434373610967  4.567252417426403  -7.288959705263652  46.44041399435799  9.891209802799535  0.7972870254851053  57.61920025566745  22.331208930096334  6.489401193364868  13.184841939874055  120.000000
7.251020000000001  0.000000  0.000000  0.000000  -24.639356806301652  4.456630832390479  -7.673317405370845  46.78806224398892  10.03096964714251  1.192745299898945  55.870395212968695  25.38497206798475  6.409938627227791  12.602582174650662  120.000000
7.2990400000000015  0.000000  0.000000  0.000000  -24.784903910737526  4.372142926444082  -7.88016602090534  47.30516938697635  10.186760180582986  1.597724743939307  54.170063125587525  28.76936706802695  6.079402642078515  12.121037108207101  120.000000
7.347060000000001  0.000000  0.000000  0.000000  -25.039820392205414  4.315255785631258  -7.903710561115399  47.987941605390375  10.326640409088357  2.004082222570192  52.54684030593523  32.43658801865578  5.5543173953036264  11.727952943014028  120.000000
7.395080000000001  0.000000  0.000000  0.000000  -25.384926620637632  4.2857470235038075  -7.746469577403785  48.820839693470305  10.416984579392379  2.4066133155576837  51.04175070038399  36.323042035406516  4.8834508657931455  11.406357391367074  120.000000
7.443100000000001  0.000000  0.000000  0.000000  -25.800896528114567  4.285352532778625  -7.414332696808775  49.78543013645328  10.43505681370589  2.7929372579524783  49.69100497964489  40.35934623314262  4.104297818103474  11.140220087079845  120.000000
7.491120000000001  0.000000  0.000000  0.000000  -26.2693101912013  4.31334108876225  -6.911491737144592  50.850477987193855  10.36750672433389  3.149121828692131  48.51001374159676  44.465880357100524  3.2464440782748087  10.918764691906684  120.000000
7.5391400000000015  0.000000  0.000000  0.000000  -26.771900299234744  4.365612778886202  -6.240600561613353  51.971465094988176  10.210042321800232  3.4627374166921263  47.49258358930693  48.55803245236185  2.329408989238872  10.736036083461954  120.000000
7.587160000000001  0.000000  0.000000  0.000000  -27.28874249657339  4.443693436815208  -5.403698793399496  53.108088484018836  9.970399471433952  3.7146461581923105  46.61574421657469  52.565098890839046  1.36160127652284  10.587020010118538  120.000000
7.635180000000001  0.000000  0.000000  0.000000  -27.805373838565266  4.5474217438236515  -4.400955090969184  54.22251484569684  9.656175969816454  3.886367047552908  45.84569375071915  56.432232048720174  0.3465751996429702  10.468297437232419  120.000000
7.683200000000001  0.000000  0.000000  0.000000  -28.310002244772317  4.671384928362214  -3.238706816820867  55.277296645120494  9.269829251540926  3.9662787186614397  45.14379051449372  60.115206890935696  -0.7140695744776122  10.37737254460322  120.000000
7.731220000000001  0.000000  0.000000  0.000000  -28.790117436764504  4.809520532816987  -1.934655649966087  56.2430254756297  8.813258717056833  3.9467381388280542  44.4743285236558  63.57676926740801  -1.8199880109520135  10.312655311072975  120.000000
7.7792400000000015  0.000000  0.000000  0.000000  -29.233451207329217  4.954575130523768  -0.5132192470783756  57.09933646772452  8.286206646974817  3.8254621059365306  43.808395726704134  66.784016795946  -2.970679715589775  10.274128559706476  120.000000
7.827260000000001  0.000000  0.000000  0.000000  -29.628605916850184  5.099591391092172  0.9953727635831684  57.83533842233035  7.691468216276812  3.607517010637455  43.126818587198954  69.71000649326412  -4.16320802243106  10.261547510623346  120.000000
7.875280000000001  0.000000  0.000000  0.000000  -29.967425701828  5.238143886139498  2.5592198287579593  58.449856981736076  7.037165130854332  3.303666043561962  42.42243549332749  72.33581850381957  -5.387895043900684  10.273587489346001  120.000000
7.923300000000001  0.000000  0.000000  0.000000  -30.246325345455055  5.366841930490175  4.155659390363998  58.9487191051771  6.333663295168163  2.925263000075286  41.69975125437229  74.65241442946669  -6.625527733487402  10.305433189880024  120.000000
7.971320000000001  0.000000  0.000000  0.000000  -30.469130922574635  5.4866957340434945  5.770730868128964  59.3413186023703  5.595501961706534  2.482946445110743  40.97191510230697  76.6622891782669  -7.846740264795025  10.347707973162231  120.000000
8.019340000000001  0.000000  0.000000  0.000000  -30.64644935644757  5.600733427602563  7.395245034201121  59.63686695159414  4.838502584729452  1.9869187927441674  40.258820054447646  78.37714779292875  -9.013660242128898  10.387558801154457  120.000000
8.06736  0.000000  0.000000  0.000000  -30.792482984062147  5.7124078598854595  9.020625857420047  59.844021343098056  4.075273804327501  1.4462123667079396  39.58509557869959  79.81428296245416  -10.085536593333087  10.412545312821274  120.000000
8.115380000000002  0.000000  0.000000  0.000000  -30.92066313623702  5.823967806545581  10.634589477173144  59.97162050373992  3.311628256359324  0.8694865549847388  38.97893572577106  80.99212869989061  -11.025569373640606  10.414590415876289  120.000000
8.163400000000001  0.000000  0.000000  0.000000  -31.039241647329373  5.934500388639139  12.219187480241795  60.03046435823413  2.5447257565065486  0.2661663504153347  38.47065538614745  81.92592641745226  -11.80711521004996  10.393535870423761  120.000000
8.21142  0.000000  0.000000  0.000000  -31.149664818038495  6.040778902871058  13.750710016963366  60.03386608700208  1.7642992459642364  -0.3536134450406272  38.090992442713386  82.62481169147273  -12.415043029322486  10.35691732911624  120.000000
8.259440000000001  0.000000  0.000000  0.000000  -31.246875413688908  6.137095566689664  15.202125100848711  59.99586981162363  0.9564645748588755  -0.9789112022819892  37.86865972829881  83.0903739951684  -12.843200074149246  10.316400701950704  120.000000
8.30746  0.000000  0.000000  0.000000  -31.32229559351608  6.217954647428839  16.546364534122215  59.92883757675967  0.1082605241995902  -1.6001680151393256  37.82765206466032  83.31713979948408  -13.08888414620833  10.282230883577343  120.000000
8.355480000000002  0.000000  0.000000  0.000000  -31.366395814658137  6.278161937578461  17.759110938019788  59.840337686371456  -0.7887952055680764  -2.209901988912655  37.98477275763589  83.29315036766315  -13.148876014304609  10.258341057612473  120.000000
8.403500000000001  0.000000  0.000000  0.000000  -31.370582460551343  6.315147373310976  18.822728255340913  59.73229470992781  -1.734885121779407  -2.802905558485784  38.346340607837526  82.99494929564825  -13.01928580763935  10.239668133519833  120.000000
8.451520000000002  0.000000  0.000000  0.000000  -31.32716748656269  6.329583460458177  19.727520483788428  59.60148354569964  -2.71889551643028  -3.3741252616517676  38.90592524322193  82.38300363415792  -12.698620514026036  10.214062090331929  120.000000
8.499540000000001  0.000000  0.000000  0.000000  -31.22891355068811  6.3245863056673635  20.465767312001216  59.440181544612955  -3.7194364732761374  -3.9181455653093877  39.64660390723288  81.40954038503149  -12.18836810630992  10.167021286048016  120.000000
8.54756  0.000000  0.000000  0.000000  -31.069142799578177  6.30480085016864  21.02343778005159  59.23670975078846  -4.706051152504733  -4.429205613667079  40.54345097347086  80.02541880556676  -11.494534140941404  10.089396095139715  120.000000
8.595580000000002  0.000000  0.000000  0.000000  -30.843881880216454  6.275756750589311  21.38706781084605  58.97477107868268  -5.649317517329786  -4.9054649740708545  41.56455550598831  78.18243306459861  -10.62948969439467  9.984080797808128  120.000000
8.643600000000001  0.000000  0.000000  0.000000  -30.55571389168483  6.246787764534814  21.551213145900885  58.632117906149425  -6.525341911718068  -5.353960322521407  42.671756451935195  75.83970734636004  -9.611166137943357  9.868769017728512  120.000000
8.691620000000002  0.000000  0.000000  0.000000  -30.21352290682479  6.229680661596124  21.514103741347483  58.18465959523498  -7.307837804443763  -5.78299721718449  43.8265841163679  72.97426930650663  -8.460231808891981  9.772564090839444  120.000000
8.739640000000001  0.000000  0.000000  0.000000  -29.829260545035194  6.239221503626026  21.277550496225064  57.616027518136896  -7.962929590818905  -6.197816169812348  44.99527143133303  69.58887510356081  -7.1942398372557115  9.731311105546057  120.000000
8.78766  0.000000  0.000000  0.000000  -29.417354950284505  6.287576060031262  20.84732990987346  56.92106295822491  -8.448224027146209  -6.5960368058265155  46.14784792846819  65.71731772476409  -5.823265154694214  9.779380824148658  120.000000
8.835680000000002  0.000000  0.000000  0.000000  -28.992187755881464  6.380983328718976  20.23385770892439  56.10929680682134  -8.71534270351584  -6.969742067891413  47.2594269357943  61.42867705283398  -4.3472336785441055  9.946731354645395  120.000000
